<svg width="32" height="32" viewBox="0 0 32 32" fill="none" xmlns="http://www.w3.org/2000/svg">
<path d="M4 25.6H28V28H4V25.6ZM6.4 16H8.8V24.4H6.4V16ZM12.4 16H14.8V24.4H12.4V16ZM17.2 16H19.6V24.4H17.2V16ZM23.2 16H25.6V24.4H23.2V16ZM4 10L16 4L28 10V14.8H4V10ZM16 11.2C16.3183 11.2 16.6235 11.0736 16.8485 10.8485C17.0736 10.6235 17.2 10.3183 17.2 10C17.2 9.68174 17.0736 9.37652 16.8485 9.15147C16.6235 8.92643 16.3183 8.8 16 8.8C15.6817 8.8 15.3765 8.92643 15.1515 9.15147C14.9264 9.37652 14.8 9.68174 14.8 10C14.8 10.3183 14.9264 10.6235 15.1515 10.8485C15.3765 11.0736 15.6817 11.2 16 11.2Z" fill="#525866"/>
</svg>
