<svg width="87" height="52" viewBox="0 0 87 52" fill="none" xmlns="http://www.w3.org/2000/svg">
<path d="M60.0251 12.4222L45.1046 20.9482H67.1381L84.46 32.8559C84.46 32.8559 86.1662 33.6876 86.0903 34.4863C86.0145 35.2849 84.6123 49.4444 83.8659 50.6741C83.1196 51.9039 82.0318 51.6931 82.0318 51.6931H0.312756C0.312756 51.6931 -0.390945 50.6444 0.312756 49.4514C1.01646 48.2584 22.3483 3.3425 23.9348 2.08402C25.5213 0.825547 26.5842 1.06508 26.5842 1.06508L61.4319 1.09387C61.4319 1.09387 63.0833 2.04867 62.6546 3.91811C62.2259 5.78755 60.0251 12.4222 60.0251 12.4222Z" fill="#0E7BB2"/>
<path d="M33.0263 7.80396H50.0783L45.1049 20.2377L73.5249 40.487H48.0814L39.4556 32.3162L35.8684 40.487H15.6191L33.0263 7.80396Z" fill="white"/>
<ellipse cx="68.6585" cy="3.69936" rx="3.38311" ry="3.38295" fill="#0E7BB2"/>
</svg>
