<svg width="217" height="33" viewBox="0 0 217 33" fill="none" xmlns="http://www.w3.org/2000/svg">
<path d="M39.3078 8.28936L29.5564 13.5497H43.9565L55.2774 20.8965C55.2774 20.8965 56.3924 21.4096 56.3429 21.9024C56.2933 22.3952 55.3769 31.1313 54.8891 31.89C54.4013 32.6487 53.6904 32.5187 53.6904 32.5187H0.282528C0.282528 32.5187 -0.177379 31.8717 0.282528 31.1356C0.742436 30.3995 14.684 2.68735 15.7208 1.9109C16.7577 1.13444 17.4523 1.28223 17.4523 1.28223L40.2272 1.29999C40.2272 1.29999 41.3065 1.88909 41.0263 3.04249C40.7462 4.1959 39.3078 8.28936 39.3078 8.28936Z" fill="#0E7BB2"/>
<path d="M21.6617 5.43994H32.8061L29.5557 13.1113L48.1297 25.6047H31.501L25.8636 20.5635L23.5191 25.6047H10.2852L21.6617 5.43994Z" fill="white"/>
<ellipse cx="44.9493" cy="2.90752" rx="2.21105" ry="2.08721" fill="#0E7BB2"/>
<path d="M75.4225 31V18.4H81.1285C81.9685 18.4 82.7005 18.556 83.3245 18.868C83.9605 19.18 84.4525 19.618 84.8005 20.182C85.1605 20.734 85.3405 21.382 85.3405 22.126C85.3405 22.954 85.1065 23.668 84.6385 24.268C84.1705 24.868 83.5405 25.3 82.7485 25.564L85.5565 31H83.4685L80.8585 25.834H77.3125V31H75.4225ZM77.3125 24.25H80.9845C81.7285 24.25 82.3225 24.064 82.7665 23.692C83.2225 23.308 83.4505 22.792 83.4505 22.144C83.4505 21.52 83.2225 21.016 82.7665 20.632C82.3225 20.248 81.7285 20.056 80.9845 20.056H77.3125V24.25ZM92.7188 31.162C91.8188 31.162 91.0028 30.952 90.2708 30.532C89.5508 30.112 88.9748 29.542 88.5428 28.822C88.1228 28.102 87.9128 27.298 87.9128 26.41C87.9128 25.534 88.1168 24.742 88.5248 24.034C88.9328 23.314 89.4848 22.744 90.1808 22.324C90.8768 21.892 91.6508 21.676 92.5028 21.676C93.3548 21.676 94.1108 21.892 94.7708 22.324C95.4308 22.744 95.9528 23.32 96.3368 24.052C96.7328 24.772 96.9308 25.588 96.9308 26.5V27.004H89.7128C89.8088 27.508 89.9948 27.958 90.2708 28.354C90.5588 28.75 90.9188 29.062 91.3508 29.29C91.7948 29.518 92.2748 29.632 92.7908 29.632C93.2348 29.632 93.6608 29.566 94.0688 29.434C94.4888 29.29 94.8368 29.086 95.1128 28.822L96.2648 29.956C95.7248 30.364 95.1668 30.67 94.5908 30.874C94.0268 31.066 93.4028 31.162 92.7188 31.162ZM89.7308 25.654H95.1488C95.0768 25.174 94.9088 24.754 94.6448 24.394C94.3928 24.022 94.0748 23.734 93.6908 23.53C93.3188 23.314 92.9108 23.206 92.4668 23.206C92.0108 23.206 91.5908 23.308 91.2068 23.512C90.8228 23.716 90.4988 24.004 90.2348 24.376C89.9828 24.736 89.8148 25.162 89.7308 25.654ZM100.445 31V21.838H102.245V22.774C102.953 22.03 103.871 21.658 104.999 21.658C105.707 21.658 106.325 21.808 106.853 22.108C107.393 22.408 107.813 22.828 108.113 23.368C108.425 23.908 108.581 24.532 108.581 25.24V31H106.781V25.546C106.781 24.826 106.577 24.262 106.169 23.854C105.773 23.434 105.215 23.224 104.495 23.224C104.015 23.224 103.583 23.326 103.199 23.53C102.815 23.734 102.497 24.028 102.245 24.412V31H100.445ZM116.67 31.144C115.818 31.144 115.038 30.934 114.33 30.514C113.622 30.094 113.064 29.53 112.656 28.822C112.248 28.102 112.044 27.298 112.044 26.41C112.044 25.522 112.248 24.724 112.656 24.016C113.076 23.308 113.64 22.744 114.348 22.324C115.056 21.904 115.842 21.694 116.706 21.694C117.21 21.694 117.696 21.772 118.164 21.928C118.632 22.084 119.064 22.312 119.46 22.612V18.4L121.26 18.058V31H119.478V30.118C118.698 30.802 117.762 31.144 116.67 31.144ZM116.904 29.578C117.432 29.578 117.912 29.482 118.344 29.29C118.788 29.098 119.16 28.822 119.46 28.462V24.34C119.16 24.004 118.788 23.74 118.344 23.548C117.912 23.344 117.432 23.242 116.904 23.242C116.328 23.242 115.806 23.38 115.338 23.656C114.87 23.932 114.498 24.31 114.222 24.79C113.946 25.258 113.808 25.792 113.808 26.392C113.808 26.992 113.946 27.532 114.222 28.012C114.498 28.492 114.87 28.876 115.338 29.164C115.806 29.44 116.328 29.578 116.904 29.578ZM125.408 31V18.4H130.862C131.69 18.4 132.41 18.538 133.022 18.814C133.634 19.09 134.108 19.48 134.444 19.984C134.78 20.476 134.948 21.058 134.948 21.73C134.948 22.342 134.792 22.882 134.48 23.35C134.168 23.818 133.73 24.19 133.166 24.466C133.874 24.718 134.426 25.102 134.822 25.618C135.23 26.122 135.434 26.716 135.434 27.4C135.434 28.132 135.254 28.768 134.894 29.308C134.546 29.848 134.042 30.268 133.382 30.568C132.734 30.856 131.972 31 131.096 31H125.408ZM127.298 23.746H130.754C131.462 23.746 132.026 23.578 132.446 23.242C132.866 22.906 133.076 22.45 133.076 21.874C133.076 21.298 132.866 20.842 132.446 20.506C132.026 20.17 131.462 20.002 130.754 20.002H127.298V23.746ZM127.298 29.398H130.952C131.744 29.398 132.368 29.212 132.824 28.84C133.292 28.468 133.526 27.964 133.526 27.328C133.526 26.704 133.292 26.206 132.824 25.834C132.368 25.45 131.744 25.258 130.952 25.258H127.298V29.398ZM139.068 31V21.838H140.868V31H139.068ZM139.968 20.362C139.668 20.362 139.41 20.254 139.194 20.038C138.978 19.81 138.87 19.546 138.87 19.246C138.87 18.934 138.978 18.676 139.194 18.472C139.41 18.256 139.668 18.148 139.968 18.148C140.28 18.148 140.544 18.256 140.76 18.472C140.976 18.676 141.084 18.934 141.084 19.246C141.084 19.546 140.976 19.81 140.76 20.038C140.544 20.254 140.28 20.362 139.968 20.362ZM148.712 31.162C147.824 31.162 147.146 30.958 146.678 30.55C146.21 30.13 145.976 29.524 145.976 28.732V23.35H144.032V21.838H145.976V19.498L147.758 19.066V21.838H150.458V23.35H147.758V28.318C147.758 28.786 147.86 29.122 148.064 29.326C148.28 29.518 148.628 29.614 149.108 29.614C149.36 29.614 149.582 29.596 149.774 29.56C149.978 29.524 150.194 29.47 150.422 29.398V30.91C150.182 30.994 149.9 31.054 149.576 31.09C149.264 31.138 148.976 31.162 148.712 31.162Z" fill="white"/>
</svg>
