<svg width="40" height="40" viewBox="0 0 40 40" fill="none" xmlns="http://www.w3.org/2000/svg">
<g clip-path="url(#clip0_232_1460)">
<rect y="-0.000366211" width="40" height="40" rx="20" fill="#C2D6FF"/>
<path d="M13.7769 14.8346C13.8815 15.0983 14.0526 15.3399 14.2622 15.5594C14.7586 16.0787 15.4722 16.4718 16.0368 16.7278C16.0356 16.7563 16.034 16.7923 16.032 16.8364C16.016 17.2307 15.9719 18.2328 15.897 19.4705C15.7595 21.7452 15.5183 24.8148 15.1561 26.3666C15.1685 26.363 15.1773 26.3602 15.1817 26.3586H15.1821C15.1821 26.3586 15.1837 26.3578 15.1845 26.3578C15.1849 26.3578 15.1849 26.3574 15.1849 26.3574L15.201 26.8426C15.201 26.8426 18.8428 32.3344 18.7546 32.7162C18.7274 32.8336 18.4457 33.1974 18.0534 33.6498C19.4482 34.1414 20.6566 33.8493 20.6566 33.8493C20.1754 33.3068 19.8112 32.8504 19.7804 32.7162C19.6922 32.3344 23.334 26.8426 23.334 26.8426L23.35 26.3574L23.4538 23.1936C24.395 23.5098 25.3747 23.6688 26.2566 23.4805C26.6248 23.402 26.9758 23.2625 27.2999 23.049C32.0288 19.9333 24.6695 9.62976 24.6695 9.62976C24.6695 9.62976 24.6622 10.1775 24.1093 10.5289C23.8945 10.6651 23.5976 10.7717 23.1869 10.805C21.7176 10.924 19.6133 9.95111 18.4024 9.8321C17.1916 9.7131 17.1318 9.97114 17.1318 9.97114C17.1318 9.97114 17.9857 12.7703 17.8663 13.306C17.7473 13.8421 17.5093 14.3979 17.5093 14.3979C17.5093 14.3979 17.0922 12.2342 16.0797 12.2142C15.0671 12.1945 13.2012 13.3857 13.7769 14.8346Z" fill="#F3BBB0" stroke="black" stroke-width="0.356161" stroke-linecap="round" stroke-linejoin="round"/>
<path d="M14.2587 43.0583H23.6875V34.1111H14.2587L14.2587 43.0583Z" fill="#BF9EF9" stroke="black" stroke-width="0.356161" stroke-linecap="round" stroke-linejoin="round"/>
<path d="M6.03926 41.0767C6.75688 41.5335 9.85695 41.0531 11.4765 40.7606C10.8282 40.0674 10.3506 39.51 10.1899 39.2219C9.46348 37.9197 8.26183 35.5657 8.26183 35.5657L10.7408 33.9634L8.58719 32.1103C8.58719 32.1103 11.0534 28.7469 12.0138 27.7581C11.9753 27.7685 11.037 28.0229 9.75798 28.3915C7.11068 29.154 3.0045 30.4034 2.40628 30.9815C2.16827 31.2115 1.9451 31.486 1.74395 31.7677C1.19021 32.543 0.804356 33.3736 0.738644 33.483C0.649292 33.632 5.05638 40.4512 6.03926 41.0767Z" fill="#4C70F5" stroke="black" stroke-width="0.356161" stroke-linecap="round" stroke-linejoin="round"/>
<path d="M8.34239 32.1491C8.34239 32.1491 9.32406 34.0856 9.93269 34.7516C10.5413 35.4171 8.1737 35.7184 8.08715 36.0838C8.00101 36.4492 9.27117 42.562 10.6207 43.4616C11.9702 44.3611 14.6371 42.2443 14.8811 41.8737C15.1251 41.503 15.1191 35.47 14.8811 35.2051C14.6431 34.9407 12.473 31.6591 12.2879 31.6327C12.1028 31.6062 8.34239 32.1487 8.34239 32.1487V32.1491Z" fill="#2253DD"/>
<path d="M1.74414 31.7665C2.15845 32.0021 2.6617 32.1007 3.14212 32.0722C3.88458 32.0286 4.58577 31.7248 5.2465 31.3843C5.90722 31.0433 6.55151 30.6582 7.25872 30.429C7.65058 30.3016 8.05727 30.2239 8.44714 30.0913C8.837 29.9586 9.21885 29.7631 9.4841 29.4482C9.72812 29.1581 9.85593 28.7518 9.75817 28.3904C7.11087 29.1529 3.00468 30.4022 2.40647 30.9804C2.16846 31.2104 1.94528 31.4848 1.74414 31.7665Z" fill="#80A1FF"/>
<path d="M10.1899 39.2219C10.3506 39.51 10.8282 40.0674 11.4765 40.7606C9.85695 41.0531 6.75687 41.5335 6.03926 41.0767C5.05638 40.4512 0.649292 33.632 0.738644 33.483C0.827996 33.3339 1.51276 31.845 2.40628 30.9815C3.29339 30.1241 11.8956 27.7901 12.0138 27.7581C11.0534 28.7469 8.58719 32.1103 8.58719 32.1103L10.7408 33.9634L8.26183 35.5657C8.26183 35.5657 9.46348 37.9197 10.1899 39.2219Z" stroke="black" stroke-width="0.356161" stroke-linecap="round" stroke-linejoin="round"/>
<path d="M14.2611 15.5586C14.0515 15.339 13.8804 15.0974 13.7759 14.8337C13.2001 13.3849 15.0661 12.1936 16.0786 12.2133C17.0911 12.2333 17.5082 14.397 17.5082 14.397C17.5082 14.397 17.7462 13.8412 17.8652 13.3051C17.9846 12.7694 17.1308 9.97026 17.1308 9.97026C17.1308 9.97026 17.1905 9.71222 18.4013 9.83122C19.6122 9.95022 21.7166 10.9231 23.1859 10.8041C24.6548 10.6847 24.6684 9.62888 24.6684 9.62888C24.6684 9.62888 25.3111 9.08916 25.7687 8.29501C26.2795 7.4087 26.56 6.20586 25.4593 5.08395C24.3903 3.99369 23.3962 4.20085 22.4218 4.77823C21.5375 5.30232 20.6692 6.13213 19.7753 6.57408C19.6442 6.63899 19.5036 6.69469 19.355 6.74317C17.3688 7.39628 13.9181 6.79245 12.4712 9.10358C12.3338 9.32356 12.2216 9.54233 12.1323 9.7603C11.2131 12.0041 12.7437 14.1141 14.2611 15.5586Z" fill="#6D1249" stroke="black" stroke-width="0.356161" stroke-linecap="round" stroke-linejoin="round"/>
<path d="M15.0615 26.7242C15.0936 26.6172 15.1248 26.4978 15.1549 26.368C15.1549 26.3672 15.1549 26.3664 15.1557 26.3656" stroke="black" stroke-width="0.356161" stroke-linecap="round" stroke-linejoin="round"/>
<path d="M28.3434 39.2219C28.1828 39.51 27.7051 40.0674 27.0568 40.7606C28.6764 41.0531 31.7765 41.5335 32.4941 41.0767C33.477 40.4512 37.884 33.632 37.7947 33.483C37.7053 33.3339 37.0206 31.845 36.1271 30.9815C35.24 30.1241 26.6377 27.7901 26.5195 27.7581C27.48 28.7469 29.9462 32.1103 29.9462 32.1103L27.7925 33.9634L30.2715 35.5657C30.2715 35.5657 29.0699 37.9197 28.3434 39.2219Z" fill="#4C70F5" stroke="black" stroke-width="0.356161" stroke-linecap="round" stroke-linejoin="round"/>
<path d="M28.3434 39.2219C28.1828 39.51 27.7051 40.0674 27.0568 40.7606C28.6764 41.0531 31.7765 41.5335 32.4941 41.0767C33.4754 40.452 37.8716 33.6517 37.7951 33.4838C37.7951 33.4834 37.7947 33.4834 37.7947 33.483C37.7053 33.3339 37.0206 31.845 36.1271 30.9815C35.6006 30.4727 32.3567 29.4437 29.7815 28.6848C28.0177 28.1643 26.5676 27.7713 26.5195 27.7581C27.48 28.7469 29.9462 32.1103 29.9462 32.1103L27.7925 33.9634L30.2715 35.5657C30.2715 35.5657 29.0699 37.9197 28.3434 39.2219Z" fill="#4C70F5" stroke="black" stroke-width="0.356161" stroke-linecap="round" stroke-linejoin="round"/>
<path d="M8.26172 35.5648C8.26172 35.5648 9.46336 37.9188 10.1898 39.221C10.3505 39.5091 10.8281 40.0664 11.4764 40.7596C13.7571 43.1994 18.1445 47.3176 18.203 47.2591C18.2475 47.2146 16.799 41.2949 15.5946 36.1121C15.4119 35.3252 15.2344 34.5551 15.0689 33.8254C14.4891 31.2695 14.0528 29.206 14.0211 28.6286C13.9302 26.9686 14.9631 26.4493 15.1542 26.3675C15.1631 26.3639 15.1703 26.3611 15.1751 26.3591C15.1703 26.3607 15.1635 26.3627 15.155 26.3651C15.0096 26.412 14.3453 26.628 13.6725 26.8828C13.1116 27.0956 12.5446 27.3352 12.2681 27.5267C12.2044 27.5708 12.1179 27.6501 12.0137 27.7571C11.0533 28.746 8.58707 32.1093 8.58707 32.1093L10.7407 33.9625L8.26172 35.5648Z" fill="#4C70F5" stroke="black" stroke-width="0.356161" stroke-linecap="round" stroke-linejoin="round"/>
<path d="M26.5176 27.7573C26.5176 27.7573 26.5184 27.7573 26.52 27.7581" stroke="black" stroke-width="0.356161" stroke-linecap="round" stroke-linejoin="round"/>
<path d="M17.4004 34.3727C17.4004 34.3727 18.1565 36.6731 18.5572 36.8954C18.9578 37.1182 20.1447 37.1627 20.2637 37.0589C20.3823 36.9547 21.5771 34.8399 21.5771 34.8399C21.2594 34.5114 20.9376 34.1652 20.6563 33.8479C20.6563 33.8479 19.4479 34.14 18.0531 33.6483C17.8568 33.8747 17.6336 34.1227 17.4004 34.3727Z" fill="#E86F3A" stroke="black" stroke-width="0.356161" stroke-linecap="round" stroke-linejoin="round"/>
<path d="M17.1174 42.561C17.1395 42.6532 19.2935 46.0457 19.4887 46.0698C19.6838 46.0942 21.2505 43.2578 21.2505 43.2578L20.2636 37.0589C20.1446 37.1626 18.9578 37.1182 18.5571 36.8954C18.5571 36.8954 17.0958 42.4693 17.1174 42.561Z" fill="#E86F3A" stroke="black" stroke-width="0.356161" stroke-linecap="round" stroke-linejoin="round"/>
<path d="M29.7812 28.6841C30.1098 28.9289 30.464 29.1473 30.7621 29.3688C31.4837 29.9058 32.2058 30.4431 32.9274 30.9804C33.7127 31.5646 34.4977 32.1488 35.283 32.733C35.8187 33.1316 36.3909 33.5451 37.0556 33.6085C37.3032 33.6321 37.5637 33.5852 37.7949 33.483C37.7949 33.4826 37.7945 33.4826 37.7945 33.4822C37.7051 33.3332 37.0204 31.8443 36.1268 30.9808C35.6003 30.4719 32.3564 29.443 29.7812 28.6841Z" fill="#80A1FF"/>
<path d="M13.2603 29.8519C13.3953 31.3288 14.0452 32.7532 15.0694 33.8254C14.4896 31.2695 14.0533 29.206 14.0216 28.6286C13.9306 26.9686 14.9636 26.4493 15.1547 26.3675C15.1635 26.3639 15.1708 26.3611 15.1756 26.3591C15.1708 26.3607 15.1639 26.3627 15.1555 26.3651C15.0101 26.412 14.3458 26.628 13.673 26.8828C13.3144 27.8248 13.1682 28.8482 13.2603 29.8519Z" fill="#80A1FF"/>
<path d="M22.4219 4.77823C22.4391 4.79506 22.4575 4.81028 22.4768 4.82431C22.6703 4.96735 22.9195 5.00622 23.1415 5.09998C23.6468 5.31354 23.9833 5.80037 24.2113 6.29881C24.4397 6.79766 24.5896 7.33377 24.87 7.80497C25.0271 8.06822 25.2667 8.33067 25.5732 8.33067C25.6417 8.33067 25.7067 8.31785 25.7688 8.29501C26.2796 7.4087 26.5601 6.20586 25.4594 5.08395C24.3904 3.99369 23.3963 4.20085 22.4219 4.77823Z" fill="#932A6E"/>
<path d="M12.1318 9.76115C12.1803 9.81644 12.2356 9.86573 12.2977 9.907C12.6519 10.1418 13.1379 10.0625 13.5082 9.8533C13.8784 9.64415 14.1725 9.32561 14.5055 9.06116C15.0692 8.6136 15.754 8.3199 16.4668 8.21973C16.8947 8.15963 17.3303 8.16804 17.7586 8.10954C18.1869 8.05144 18.6229 7.91681 18.9358 7.61871C19.175 7.39072 19.3225 7.07258 19.3545 6.74402C17.3683 7.39713 13.9177 6.7933 12.4708 9.10443C12.3334 9.32441 12.2212 9.54318 12.1318 9.76115Z" fill="#932A6E"/>
<path d="M8.26172 35.5659C8.26172 35.5659 9.46336 37.9199 10.1898 39.2221C10.3505 39.5102 10.8281 40.0676 11.4764 40.7608C13.7571 43.2005 18.1445 47.3187 18.203 47.2602C18.2475 47.2157 16.799 41.2961 15.5946 36.1133C14.7712 32.5704 14.062 29.3718 14.0211 28.6297C13.9302 26.9697 14.9631 26.4504 15.1542 26.3687C15.1671 26.3635 15.1759 26.3599 15.1807 26.3583C15.1763 26.3599 15.1675 26.3627 15.155 26.3663C14.8882 26.4524 12.8756 27.1071 12.2681 27.5279C12.2044 27.5719 12.1179 27.6513 12.0137 27.7583C11.0533 28.7471 8.58707 32.1105 8.58707 32.1105L10.7407 33.9636L8.26172 35.5659Z" stroke="black" stroke-width="0.356161" stroke-linecap="round" stroke-linejoin="round"/>
<path d="M28.3434 39.2219C28.1828 39.51 27.7051 40.0674 27.0568 40.7606C28.6764 41.0531 31.7765 41.5335 32.4941 41.0767C33.477 40.4512 37.884 33.632 37.7947 33.483C37.7053 33.3339 37.0206 31.845 36.1271 30.9815C35.24 30.1241 26.6377 27.7901 26.5195 27.7581C27.48 28.7469 29.9462 32.1103 29.9462 32.1103L27.7925 33.9634L30.2715 35.5657C30.2715 35.5657 29.0699 37.9197 28.3434 39.2219Z" stroke="black" stroke-width="0.356161" stroke-linecap="round" stroke-linejoin="round"/>
<path d="M26.3868 18.1623C26.5067 19.5102 26.4962 20.8701 26.35 22.216C26.3047 22.6359 26.2462 23.0606 26.2566 23.4805C26.6249 23.402 26.9758 23.2625 27.3 23.049C32.0288 19.9333 24.6695 9.62976 24.6695 9.62976C24.6695 9.62976 24.6623 10.1775 24.1094 10.5289C24.2737 10.7677 24.4355 10.9989 24.5381 11.2209C25.5478 13.4054 26.1733 15.7654 26.3868 18.1623Z" fill="#F9DFDC"/>
<path d="M15.8965 19.4694C16.0183 19.3492 16.098 19.193 16.1754 19.0399C16.3749 18.6444 16.5752 18.2498 16.7744 17.8543C16.9026 17.5998 17.0328 17.3242 16.8205 17.0742C16.6309 16.851 16.332 16.7921 16.0315 16.8353C16.0155 17.2296 15.9714 18.2317 15.8965 19.4694Z" fill="#F09E8B"/>
<path d="M19.144 20.8212C19.144 20.8212 19.3655 25.4126 23.3643 25.8722L23.4521 23.1936C23.4521 23.1936 20.0559 21.5773 19.1436 20.8212H19.144Z" fill="#ED7D66"/>
<path d="M16.8351 14.7284C16.7622 14.4227 16.5623 14.1831 16.2653 13.9619C15.9684 13.7407 15.4816 13.6337 15.1042 13.7768C14.8922 13.8573 14.7287 14.0332 14.7844 14.2027C14.8325 14.3502 15.022 14.4463 15.2039 14.5185C15.7445 14.7328 16.1596 14.7705 16.7738 14.7997" fill="#ED7D66"/>
<path d="M30.0124 32.1491C30.0124 32.1491 29.0308 34.0856 28.4221 34.7516C27.8135 35.4171 30.1811 35.7184 30.2677 36.0838C30.3538 36.4492 29.0837 42.562 27.7342 43.4616C26.3847 44.3611 23.7177 42.2443 23.4737 41.8737C23.2297 41.503 23.2357 35.47 23.4737 35.2051C23.7117 34.9407 25.8818 31.6591 26.0669 31.6327C26.2521 31.6062 30.0124 32.1487 30.0124 32.1487V32.1491Z" fill="#2253DD"/>
<path d="M20.3311 47.2602C20.3896 47.3187 24.777 43.2005 27.0577 40.7608C27.706 40.0676 28.1836 39.5102 28.3443 39.2221C29.0707 37.9199 30.2724 35.5659 30.2724 35.5659L27.7934 33.9636L29.947 32.1105C29.947 32.1105 27.4808 28.7471 26.5204 27.7583C26.4162 27.6513 26.3297 27.5719 26.266 27.5279C26.2315 27.5038 26.1926 27.4794 26.1498 27.4541C25.4838 27.0631 23.8679 26.5254 23.45 26.3895C23.3975 26.3723 23.3642 26.3619 23.3534 26.3583C23.3638 26.3623 23.3959 26.3747 23.4432 26.3983C23.7333 26.5438 24.5963 27.1063 24.513 28.6297C24.4749 29.3185 23.8615 32.1225 23.1154 35.3544C23.0573 35.6052 22.9988 35.8584 22.9395 36.1133C21.7351 41.2961 20.2866 47.2157 20.3311 47.2602Z" fill="#4C70F5" stroke="black" stroke-width="0.356161" stroke-linecap="round" stroke-linejoin="round"/>
<path d="M23.1133 35.3533C23.1153 35.3621 23.1169 35.3713 23.1189 35.3801C24.0465 34.144 24.8286 32.8366 25.4545 31.4775C25.8015 30.7234 26.102 29.9489 26.2174 29.1399C26.2967 28.5862 26.2867 28.0152 26.1476 27.453C25.4817 27.062 23.8658 26.5243 23.4479 26.3884C23.4454 26.3912 23.443 26.394 23.441 26.3972C23.7311 26.5427 24.5942 27.1052 24.5109 28.6286C24.4728 29.3174 23.8593 32.1214 23.1133 35.3533Z" fill="#80A1FF"/>
<path d="M20.3311 47.2602C20.3896 47.3187 24.777 43.2005 27.0577 40.7608C27.706 40.0676 28.1836 39.5102 28.3443 39.2221C29.0707 37.9199 30.2724 35.5659 30.2724 35.5659L27.7934 33.9636L29.947 32.1105C29.947 32.1105 27.4808 28.7471 26.5204 27.7583C26.4162 27.6513 26.3297 27.5719 26.266 27.5279C25.6301 27.0875 23.4552 26.3907 23.3534 26.3583C23.4279 26.3863 24.61 26.8591 24.513 28.6297C24.4721 29.3718 23.7629 32.5704 22.9395 36.1133C21.7351 41.2961 20.2866 47.2157 20.3311 47.2602Z" stroke="black" stroke-width="0.356161" stroke-linecap="round" stroke-linejoin="round"/>
<path d="M23.4541 23.1936C21.2307 22.4463 19.2217 20.8212 19.2217 20.8212" stroke="black" stroke-width="0.356161" stroke-linecap="round" stroke-linejoin="round"/>
<path d="M16.0361 16.7269C16.5446 16.9577 16.9329 17.0771 16.9329 17.0771" stroke="black" stroke-width="0.356161" stroke-linecap="round" stroke-linejoin="round"/>
<path d="M13.7769 14.8346C13.8815 15.0983 14.0526 15.3399 14.2622 15.5594C14.7586 16.0787 15.4722 16.4718 16.0368 16.7278C16.0067 17.4779 15.7375 23.8764 15.1561 26.3666C15.1685 26.363 15.1773 26.3602 15.1817 26.3586H15.1821C15.1821 26.3586 15.1837 26.3578 15.1845 26.3578C15.1849 26.3578 15.1849 26.3574 15.1849 26.3574L15.201 26.8426C15.201 26.8426 18.8428 32.3344 18.7546 32.7162C18.7274 32.8336 18.4457 33.1974 18.0534 33.6498C19.4482 34.1414 20.6566 33.8493 20.6566 33.8493C20.1754 33.3068 19.8112 32.8504 19.7804 32.7162C19.6922 32.3344 23.334 26.8426 23.334 26.8426L23.35 26.3574L23.4538 23.1936C24.7881 23.642 26.1993 23.7742 27.2999 23.049C32.0288 19.9333 24.6695 9.62976 24.6695 9.62976C24.6695 9.62976 24.6558 10.6856 23.1869 10.805C21.7176 10.924 19.6133 9.95111 18.4024 9.8321C17.1916 9.7131 17.1318 9.97114 17.1318 9.97114C17.1318 9.97114 17.9857 12.7703 17.8663 13.306C17.7473 13.8421 17.5093 14.3979 17.5093 14.3979C17.5093 14.3979 17.0922 12.2342 16.0797 12.2142C15.0671 12.1945 13.2012 13.3857 13.7769 14.8346Z" stroke="black" stroke-width="0.356161" stroke-linecap="round" stroke-linejoin="round"/>
<path d="M19.7795 32.639C19.8103 32.7732 20.1746 33.2296 20.6558 33.7721C20.9371 34.0894 21.2588 34.4356 21.5766 34.7642C22.1059 35.3107 22.6263 35.8076 22.9385 36.0363C23.0643 35.4942 23.1877 34.9601 23.3063 34.4416C23.9634 31.5719 24.4775 29.1815 24.5119 28.5528C24.6089 26.7822 23.4269 26.3094 23.3524 26.2814C23.3524 26.2814 23.3508 26.2806 23.35 26.2806C23.3496 26.2806 23.3496 26.2802 23.3496 26.2802L23.3468 26.3699L23.3335 26.7654C23.3335 26.7654 19.6917 32.2571 19.7799 32.639H19.7795Z" fill="#F5D256" stroke="black" stroke-width="0.356161" stroke-linecap="round" stroke-linejoin="round"/>
<path d="M14.0223 28.5528C14.0571 29.1831 14.5736 31.5852 15.2331 34.4653C15.3501 34.9765 15.4715 35.5026 15.5957 36.0363C15.9956 35.743 16.7369 35.0106 17.4008 34.297C17.634 34.047 17.8572 33.7989 18.0535 33.5726C18.4458 33.1202 18.7275 32.7564 18.7547 32.639C18.8429 32.2571 15.2011 26.7654 15.2011 26.7654L15.1866 26.3298L15.185 26.2802C15.185 26.2802 15.185 26.2806 15.1846 26.2806C15.1838 26.2806 15.183 26.281 15.1822 26.2814H15.1818C15.177 26.283 15.1682 26.2866 15.1554 26.2918C14.9643 26.3735 13.9313 26.8928 14.0223 28.5528Z" fill="#F5D256" stroke="black" stroke-width="0.356161" stroke-linecap="round" stroke-linejoin="round"/>
<path d="M26.9711 5.17908C27.4439 5.64347 27.5894 6.37751 27.4403 7.02341C27.2913 7.66931 26.8814 8.23147 26.3881 8.67382C25.8949 9.11617 25.3171 9.45274 24.7441 9.78611C25.2851 9.94077 26.0051 9.99487 26.5268 9.78491C27.0485 9.57495 27.4968 9.18709 27.7797 8.70107" stroke="black" stroke-width="0.356161" stroke-linecap="round" stroke-linejoin="round"/>
<path d="M14.2611 15.5585C14.0516 15.339 13.8805 15.0973 13.7759 14.8337C13.2001 13.3848 15.0661 12.1936 16.0786 12.2132C17.0911 12.2333 17.5083 14.397 17.5083 14.397C17.5083 14.397 17.7463 13.8412 17.8653 13.3051C17.9847 12.7694 17.1308 9.97023 17.1308 9.97023C17.1308 9.97023 17.1905 9.71219 18.4014 9.83119C19.6122 9.95019 21.7166 10.923 23.1859 10.804C24.6548 10.6846 24.6684 9.62885 24.6684 9.62885C24.6684 9.62885 27.5461 7.21154 25.4594 5.08392C23.4199 3.00438 21.6537 5.64487 19.7753 6.57405C17.8969 7.50323 14.0267 6.61933 12.4713 9.10355C10.9158 11.5882 12.5967 13.9738 14.2611 15.5585Z" stroke="black" stroke-width="0.356161" stroke-linecap="round" stroke-linejoin="round"/>
<path d="M14.0223 28.5528C14.0571 29.1831 14.5736 31.5852 15.2331 34.4653C15.3629 34.3915 15.4671 34.2697 15.5348 34.1351C15.629 33.9472 15.6618 33.7344 15.6851 33.5249C15.7981 32.4939 15.6999 31.4405 15.3986 30.448C15.1782 29.7232 14.8501 29.0268 14.7339 28.2783C14.6281 27.5976 14.7351 26.8343 15.1866 26.3298L15.185 26.2802C15.185 26.2802 15.185 26.2806 15.1846 26.2806C15.1838 26.2806 15.183 26.281 15.1822 26.2814H15.1818C15.177 26.283 15.1682 26.2866 15.1554 26.2918C14.9643 26.3735 13.9313 26.8928 14.0223 28.5528Z" fill="#CEA625"/>
<path d="M23.3063 34.4416C23.9635 31.5719 24.4775 29.1815 24.512 28.5528C24.6089 26.7822 23.4269 26.3094 23.3524 26.2814C23.3524 26.2814 23.3508 26.2806 23.35 26.2806C23.3496 26.2806 23.3496 26.2802 23.3496 26.2802L23.3468 26.3699C23.6665 26.4645 23.9098 26.7678 23.9991 27.0955C24.0993 27.465 24.0396 27.858 23.9498 28.2299C23.7735 28.9579 23.485 29.6523 23.2362 30.3587C22.9878 31.0651 22.7766 31.7959 22.7642 32.5448C22.753 33.2135 22.9161 33.9039 23.3067 34.4416H23.3063Z" fill="#CEA625"/>
<path d="M19.7795 32.7155C19.8103 32.8497 20.1746 33.3061 20.6558 33.8486C20.9371 34.166 21.2588 34.5122 21.5766 34.8407C22.1059 35.3872 22.6263 35.8841 22.9385 36.1129C23.7619 32.5701 24.4711 29.3714 24.5119 28.6294C24.6089 26.8587 23.4269 26.3859 23.3524 26.3579C23.3524 26.3579 23.3508 26.3571 23.35 26.3571C23.3496 26.3571 23.3496 26.3567 23.3496 26.3567L23.3335 26.8419C23.3335 26.8419 19.6917 32.3337 19.7799 32.7155H19.7795Z" stroke="black" stroke-width="0.356161" stroke-linecap="round" stroke-linejoin="round"/>
<path d="M14.0223 28.6294C14.0631 29.3714 14.7723 32.5701 15.5957 36.1129C15.9956 35.8196 16.7369 35.0871 17.4008 34.3735C17.634 34.1235 17.8572 33.8755 18.0535 33.6491C18.4458 33.1967 18.7275 32.8329 18.7547 32.7155C18.8429 32.3337 15.2011 26.8419 15.2011 26.8419L15.185 26.3567C15.185 26.3567 15.185 26.3571 15.1846 26.3571C15.1838 26.3571 15.183 26.3571 15.1822 26.3579H15.1818C15.177 26.3595 15.1682 26.3631 15.1554 26.3683C14.9643 26.45 13.9313 26.9693 14.0223 28.6294Z" stroke="black" stroke-width="0.356161" stroke-linecap="round" stroke-linejoin="round"/>
<path d="M16.7648 14.6827C16.4479 14.0689 15.7515 13.6722 15.0615 13.7131" stroke="black" stroke-width="0.356161" stroke-linecap="round" stroke-linejoin="round"/>
<path d="M16.0388 14.0918C15.8 14.1836 15.5925 14.355 15.457 14.5722" stroke="black" stroke-width="0.356161" stroke-linecap="round" stroke-linejoin="round"/>
<path d="M24.1384 19.3159C24.0502 19.3087 23.3129 19.6288 22.4851 18.888C21.6573 18.1471 22.0051 17.3125 22.0051 17.3125" stroke="black" stroke-width="0.356161" stroke-linecap="round" stroke-linejoin="round"/>
<path d="M22.5459 17.2656C22.5459 17.2656 21.9765 17.0336 21.4961 17.6415" stroke="black" stroke-width="0.356161" stroke-linecap="round" stroke-linejoin="round"/>
<path d="M24.7295 15.2043C24.7295 15.2043 25.9063 17.0014 25.5701 17.3131C25.234 17.6249 24.4102 17.0775 24.4102 17.0775" stroke="black" stroke-width="0.356161" stroke-linecap="round" stroke-linejoin="round"/>
</g>
<defs>
<clipPath id="clip0_232_1460">
<rect y="-0.000366211" width="40" height="40" rx="20" fill="white"/>
</clipPath>
</defs>
</svg>
