<svg width="88" height="88" viewBox="0 0 88 88" fill="none" xmlns="http://www.w3.org/2000/svg">
<rect x="0.5" y="0.5" width="87" height="87" rx="43.5" fill="url(#paint0_linear_2_5321)"/>
<rect x="0.5" y="0.5" width="87" height="87" rx="43.5" stroke="url(#paint1_linear_2_5321)"/>
<g filter="url(#filter0_d_2_5321)">
<rect x="16" y="16" width="56" height="56" rx="28" fill="white"/>
<rect x="16.5" y="16.5" width="55" height="55" rx="27.5" stroke="#E2E4E9"/>
<path d="M54.5 45.408C53.3783 45.0107 52.167 44.9392 51.0064 45.2018C49.8457 45.4644 48.7832 46.0503 47.9417 46.8917C47.1003 47.7332 46.5144 48.7957 46.2518 49.9564C45.9892 51.117 46.0607 52.3283 46.458 53.45H34.55C34.2715 53.45 34.0045 53.3394 33.8075 53.1425C33.6106 52.9455 33.5 52.6785 33.5 52.4V35.6C33.5 35.3215 33.6106 35.0544 33.8075 34.8575C34.0045 34.6606 34.2715 34.55 34.55 34.55H53.45C53.7285 34.55 53.9955 34.6606 54.1925 34.8575C54.3894 35.0544 54.5 35.3215 54.5 35.6V45.408ZM44.063 43.6671L37.3304 37.9499L35.9706 39.5501L44.0766 46.4328L52.0367 39.5448L50.6633 37.9562L44.064 43.6671H44.063ZM51.35 54.5L47.6372 50.7872L49.1229 49.3025L51.35 51.5306L55.0628 47.8178L56.5475 49.3025L51.35 54.5Z" fill="#525866"/>
</g>
<defs>
<filter id="filter0_d_2_5321" x="12" y="14" width="64" height="64" filterUnits="userSpaceOnUse" color-interpolation-filters="sRGB">
<feFlood flood-opacity="0" result="BackgroundImageFix"/>
<feColorMatrix in="SourceAlpha" type="matrix" values="0 0 0 0 0 0 0 0 0 0 0 0 0 0 0 0 0 0 127 0" result="hardAlpha"/>
<feOffset dy="2"/>
<feGaussianBlur stdDeviation="2"/>
<feColorMatrix type="matrix" values="0 0 0 0 0.105882 0 0 0 0 0.109804 0 0 0 0 0.113725 0 0 0 0.04 0"/>
<feBlend mode="normal" in2="BackgroundImageFix" result="effect1_dropShadow_2_5321"/>
<feBlend mode="normal" in="SourceGraphic" in2="effect1_dropShadow_2_5321" result="shape"/>
</filter>
<linearGradient id="paint0_linear_2_5321" x1="44" y1="0" x2="44" y2="88" gradientUnits="userSpaceOnUse">
<stop stop-color="#E4E5E7" stop-opacity="0.48"/>
<stop offset="1" stop-color="#F7F8F8" stop-opacity="0"/>
<stop offset="1" stop-color="#E4E5E7" stop-opacity="0"/>
</linearGradient>
<linearGradient id="paint1_linear_2_5321" x1="44" y1="0" x2="44" y2="88" gradientUnits="userSpaceOnUse">
<stop stop-color="#E4E5E7"/>
<stop offset="0.765625" stop-color="#E4E5E7" stop-opacity="0"/>
</linearGradient>
</defs>
</svg>
