<svg width="88" height="88" viewBox="0 0 88 88" fill="none" xmlns="http://www.w3.org/2000/svg">
<rect x="0.5" y="0.5" width="87" height="87" rx="43.5" fill="url(#paint0_linear_2_5255)"/>
<rect x="0.5" y="0.5" width="87" height="87" rx="43.5" stroke="url(#paint1_linear_2_5255)"/>
<g filter="url(#filter0_d_2_5255)">
<rect x="16" y="16" width="56" height="56" rx="28" fill="white"/>
<rect x="16.5" y="16.5" width="55" height="55" rx="27.5" stroke="#E2E4E9"/>
<path d="M35.6 54.5C35.6 52.2722 36.485 50.1356 38.0603 48.5603C39.6356 46.985 41.7722 46.1 44 46.1C46.2278 46.1 48.3644 46.985 49.9397 48.5603C51.515 50.1356 52.4 52.2722 52.4 54.5H35.6ZM44 45.05C40.5192 45.05 37.7 42.2308 37.7 38.75C37.7 35.2693 40.5192 32.45 44 32.45C47.4807 32.45 50.3 35.2693 50.3 38.75C50.3 42.2308 47.4807 45.05 44 45.05Z" fill="#525866"/>
</g>
<defs>
<filter id="filter0_d_2_5255" x="12" y="14" width="64" height="64" filterUnits="userSpaceOnUse" color-interpolation-filters="sRGB">
<feFlood flood-opacity="0" result="BackgroundImageFix"/>
<feColorMatrix in="SourceAlpha" type="matrix" values="0 0 0 0 0 0 0 0 0 0 0 0 0 0 0 0 0 0 127 0" result="hardAlpha"/>
<feOffset dy="2"/>
<feGaussianBlur stdDeviation="2"/>
<feColorMatrix type="matrix" values="0 0 0 0 0.105882 0 0 0 0 0.109804 0 0 0 0 0.113725 0 0 0 0.04 0"/>
<feBlend mode="normal" in2="BackgroundImageFix" result="effect1_dropShadow_2_5255"/>
<feBlend mode="normal" in="SourceGraphic" in2="effect1_dropShadow_2_5255" result="shape"/>
</filter>
<linearGradient id="paint0_linear_2_5255" x1="44" y1="0" x2="44" y2="88" gradientUnits="userSpaceOnUse">
<stop stop-color="#E4E5E7" stop-opacity="0.48"/>
<stop offset="1" stop-color="#F7F8F8" stop-opacity="0"/>
<stop offset="1" stop-color="#E4E5E7" stop-opacity="0"/>
</linearGradient>
<linearGradient id="paint1_linear_2_5255" x1="44" y1="0" x2="44" y2="88" gradientUnits="userSpaceOnUse">
<stop stop-color="#E4E5E7"/>
<stop offset="0.765625" stop-color="#E4E5E7" stop-opacity="0"/>
</linearGradient>
</defs>
</svg>
