<svg width="88" height="88" viewBox="0 0 88 88" fill="none" xmlns="http://www.w3.org/2000/svg">
<rect x="0.5" y="0.5" width="87" height="87" rx="43.5" fill="url(#paint0_linear_2_5280)"/>
<rect x="0.5" y="0.5" width="87" height="87" rx="43.5" stroke="url(#paint1_linear_2_5280)"/>
<g filter="url(#filter0_d_2_5280)">
<rect x="16" y="16" width="56" height="56" rx="28" fill="white"/>
<rect x="16.5" y="16.5" width="55" height="55" rx="27.5" stroke="#E2E4E9"/>
<path d="M46.1001 46.3646V54.5H35.6001C35.5998 53.2178 35.893 51.9526 36.4572 50.8013C37.0215 49.6499 37.8418 48.643 38.8553 47.8577C39.8689 47.0724 41.0487 46.5296 42.3045 46.2708C43.5603 46.012 44.8586 46.0441 46.1001 46.3646ZM44.0001 45.05C40.5193 45.05 37.7001 42.2307 37.7001 38.75C37.7001 35.2692 40.5193 32.45 44.0001 32.45C47.4808 32.45 50.3001 35.2692 50.3001 38.75C50.3001 42.2307 47.4808 45.05 44.0001 45.05ZM50.3001 49.25V46.1H52.4001V49.25H55.5501V51.35H52.4001V54.5H50.3001V51.35H47.1501V49.25H50.3001Z" fill="#525866"/>
</g>
<defs>
<filter id="filter0_d_2_5280" x="12" y="14" width="64" height="64" filterUnits="userSpaceOnUse" color-interpolation-filters="sRGB">
<feFlood flood-opacity="0" result="BackgroundImageFix"/>
<feColorMatrix in="SourceAlpha" type="matrix" values="0 0 0 0 0 0 0 0 0 0 0 0 0 0 0 0 0 0 127 0" result="hardAlpha"/>
<feOffset dy="2"/>
<feGaussianBlur stdDeviation="2"/>
<feColorMatrix type="matrix" values="0 0 0 0 0.105882 0 0 0 0 0.109804 0 0 0 0 0.113725 0 0 0 0.04 0"/>
<feBlend mode="normal" in2="BackgroundImageFix" result="effect1_dropShadow_2_5280"/>
<feBlend mode="normal" in="SourceGraphic" in2="effect1_dropShadow_2_5280" result="shape"/>
</filter>
<linearGradient id="paint0_linear_2_5280" x1="44" y1="0" x2="44" y2="88" gradientUnits="userSpaceOnUse">
<stop stop-color="#E4E5E7" stop-opacity="0.48"/>
<stop offset="1" stop-color="#F7F8F8" stop-opacity="0"/>
<stop offset="1" stop-color="#E4E5E7" stop-opacity="0"/>
</linearGradient>
<linearGradient id="paint1_linear_2_5280" x1="44" y1="0" x2="44" y2="88" gradientUnits="userSpaceOnUse">
<stop stop-color="#E4E5E7"/>
<stop offset="0.765625" stop-color="#E4E5E7" stop-opacity="0"/>
</linearGradient>
</defs>
</svg>
