<svg width="44" height="44" viewBox="0 0 44 44" fill="none" xmlns="http://www.w3.org/2000/svg">
<g filter="url(#filter0_d_232_4127)">
<rect x="2" y="1" width="40" height="40" rx="20" fill="white"/>
<rect x="2.5" y="1.5" width="39" height="39" rx="19.5" stroke="#E2E4E9"/>
<path d="M15.25 14.75H28.75C28.9489 14.75 29.1397 14.829 29.2803 14.9697C29.421 15.1103 29.5 15.3011 29.5 15.5V26.5C29.5 26.6989 29.421 26.8897 29.2803 27.0303C29.1397 27.171 28.9489 27.25 28.75 27.25H15.25C15.0511 27.25 14.8603 27.171 14.7197 27.0303C14.579 26.8897 14.5 26.6989 14.5 26.5V15.5C14.5 15.3011 14.579 15.1103 14.7197 14.9697C14.8603 14.829 15.0511 14.75 15.25 14.75ZM28 17.9285L22.054 23.2535L16 17.912V25.75H28V17.9285ZM16.3833 16.25L22.0457 21.2465L27.6265 16.25H16.3833Z" fill="#525866"/>
</g>
<defs>
<filter id="filter0_d_232_4127" x="0" y="0" width="44" height="44" filterUnits="userSpaceOnUse" color-interpolation-filters="sRGB">
<feFlood flood-opacity="0" result="BackgroundImageFix"/>
<feColorMatrix in="SourceAlpha" type="matrix" values="0 0 0 0 0 0 0 0 0 0 0 0 0 0 0 0 0 0 127 0" result="hardAlpha"/>
<feOffset dy="1"/>
<feGaussianBlur stdDeviation="1"/>
<feComposite in2="hardAlpha" operator="out"/>
<feColorMatrix type="matrix" values="0 0 0 0 0.894118 0 0 0 0 0.898039 0 0 0 0 0.905882 0 0 0 0.24 0"/>
<feBlend mode="normal" in2="BackgroundImageFix" result="effect1_dropShadow_232_4127"/>
<feBlend mode="normal" in="SourceGraphic" in2="effect1_dropShadow_232_4127" result="shape"/>
</filter>
</defs>
</svg>
