<svg width="44" height="44" viewBox="0 0 44 44" fill="none" xmlns="http://www.w3.org/2000/svg">
<g filter="url(#filter0_d_232_4252)">
<rect x="2" y="1" width="40" height="40" rx="20" fill="white"/>
<rect x="2.5" y="1.5" width="39" height="39" rx="19.5" stroke="#E2E4E9"/>
<path d="M17.8412 26.25L14.5 28.875V15C14.5 14.8011 14.579 14.6103 14.7197 14.4697C14.8603 14.329 15.0511 14.25 15.25 14.25H28.75C28.9489 14.25 29.1397 14.329 29.2803 14.4697C29.421 14.6103 29.5 14.8011 29.5 15V25.5C29.5 25.6989 29.421 25.8897 29.2803 26.0303C29.1397 26.171 28.9489 26.25 28.75 26.25H17.8412ZM17.3222 24.75H28V15.75H16V25.7887L17.3222 24.75ZM18.25 19.5H19.75C19.75 20.0967 19.9871 20.669 20.409 21.091C20.831 21.5129 21.4033 21.75 22 21.75C22.5967 21.75 23.169 21.5129 23.591 21.091C24.0129 20.669 24.25 20.0967 24.25 19.5H25.75C25.75 20.4946 25.3549 21.4484 24.6517 22.1517C23.9484 22.8549 22.9946 23.25 22 23.25C21.0054 23.25 20.0516 22.8549 19.3483 22.1517C18.6451 21.4484 18.25 20.4946 18.25 19.5Z" fill="#525866"/>
</g>
<defs>
<filter id="filter0_d_232_4252" x="0" y="0" width="44" height="44" filterUnits="userSpaceOnUse" color-interpolation-filters="sRGB">
<feFlood flood-opacity="0" result="BackgroundImageFix"/>
<feColorMatrix in="SourceAlpha" type="matrix" values="0 0 0 0 0 0 0 0 0 0 0 0 0 0 0 0 0 0 127 0" result="hardAlpha"/>
<feOffset dy="1"/>
<feGaussianBlur stdDeviation="1"/>
<feComposite in2="hardAlpha" operator="out"/>
<feColorMatrix type="matrix" values="0 0 0 0 0.894118 0 0 0 0 0.898039 0 0 0 0 0.905882 0 0 0 0.24 0"/>
<feBlend mode="normal" in2="BackgroundImageFix" result="effect1_dropShadow_232_4252"/>
<feBlend mode="normal" in="SourceGraphic" in2="effect1_dropShadow_232_4252" result="shape"/>
</filter>
</defs>
</svg>
