<svg width="38" height="32" viewBox="0 0 38 32" fill="none" xmlns="http://www.w3.org/2000/svg">
<mask id="path-1-inside-1_122_67" fill="white">
<path d="M8 10C8 5.58172 11.5817 2 16 2H28C32.4183 2 36 5.58172 36 10C36 14.4183 32.4183 18 28 18H16C11.5817 18 8 14.4183 8 10Z"/>
</mask>
<g filter="url(#filter0_i_122_67)">
<path d="M8 10C8 5.58172 11.5817 2 16 2H28C32.4183 2 36 5.58172 36 10C36 14.4183 32.4183 18 28 18H16C11.5817 18 8 14.4183 8 10Z" fill="#E2E4E9"/>
</g>
<path d="M8 10C8 5.02944 12.0294 1 17 1H27C31.9706 1 36 5.02944 36 10C36 6.13401 32.4183 3 28 3H16C11.5817 3 8 6.13401 8 10ZM36 18H8H36ZM8 18V2V18ZM36 2V18V2Z" fill="#CDD0D5" mask="url(#path-1-inside-1_122_67)"/>
<g filter="url(#filter1_ddi_122_67)">
<mask id="path-3-inside-2_122_67" fill="white">
<path d="M10 10C10 6.68629 12.6863 4 16 4C19.3137 4 22 6.68629 22 10C22 13.3137 19.3137 16 16 16C12.6863 16 10 13.3137 10 10Z"/>
</mask>
<path d="M10 10C10 6.68629 12.6863 4 16 4C19.3137 4 22 6.68629 22 10C22 13.3137 19.3137 16 16 16C12.6863 16 10 13.3137 10 10Z" fill="white"/>
<path d="M10 4H22H10ZM23 10.5C23 14.0899 20.0899 17 16.5 17H15.5C11.9101 17 9 14.0899 9 10.5L11 10C11 12.7614 13.2386 15 16 15C18.7614 15 21 12.7614 21 10L23 10.5ZM15.5 17C11.9101 17 9 14.0899 9 10.5C9 6.91015 11.9101 4 15.5 4H16C13.2386 4 11 6.68629 11 10C11 12.7614 13.2386 15 16 15L15.5 17ZM16.5 4C20.0899 4 23 6.91015 23 10.5C23 14.0899 20.0899 17 16.5 17L16 15C18.7614 15 21 12.7614 21 10C21 6.68629 18.7614 4 16 4H16.5Z" fill="white" mask="url(#path-3-inside-2_122_67)"/>
</g>
<g filter="url(#filter2_d_122_67)">
<path d="M14 10C14 8.89543 14.8954 8 16 8C17.1046 8 18 8.89543 18 10C18 11.1046 17.1046 12 16 12C14.8954 12 14 11.1046 14 10Z" fill="#E2E4E9"/>
</g>
<defs>
<filter id="filter0_i_122_67" x="8" y="2" width="28" height="20" filterUnits="userSpaceOnUse" color-interpolation-filters="sRGB">
<feFlood flood-opacity="0" result="BackgroundImageFix"/>
<feBlend mode="normal" in="SourceGraphic" in2="BackgroundImageFix" result="shape"/>
<feColorMatrix in="SourceAlpha" type="matrix" values="0 0 0 0 0 0 0 0 0 0 0 0 0 0 0 0 0 0 127 0" result="hardAlpha"/>
<feOffset dy="4"/>
<feGaussianBlur stdDeviation="2"/>
<feComposite in2="hardAlpha" operator="arithmetic" k2="-1" k3="1"/>
<feColorMatrix type="matrix" values="0 0 0 0 0.0588235 0 0 0 0 0.0588235 0 0 0 0 0.0627451 0 0 0 0.06 0"/>
<feBlend mode="normal" in2="shape" result="effect1_innerShadow_122_67"/>
</filter>
<filter id="filter1_ddi_122_67" x="0" y="0" width="32" height="32" filterUnits="userSpaceOnUse" color-interpolation-filters="sRGB">
<feFlood flood-opacity="0" result="BackgroundImageFix"/>
<feColorMatrix in="SourceAlpha" type="matrix" values="0 0 0 0 0 0 0 0 0 0 0 0 0 0 0 0 0 0 127 0" result="hardAlpha"/>
<feOffset dy="2"/>
<feGaussianBlur stdDeviation="2"/>
<feColorMatrix type="matrix" values="0 0 0 0 0.105882 0 0 0 0 0.109804 0 0 0 0 0.113725 0 0 0 0.02 0"/>
<feBlend mode="normal" in2="BackgroundImageFix" result="effect1_dropShadow_122_67"/>
<feColorMatrix in="SourceAlpha" type="matrix" values="0 0 0 0 0 0 0 0 0 0 0 0 0 0 0 0 0 0 127 0" result="hardAlpha"/>
<feOffset dy="6"/>
<feGaussianBlur stdDeviation="5"/>
<feColorMatrix type="matrix" values="0 0 0 0 0.105882 0 0 0 0 0.109804 0 0 0 0 0.113725 0 0 0 0.06 0"/>
<feBlend mode="normal" in2="effect1_dropShadow_122_67" result="effect2_dropShadow_122_67"/>
<feBlend mode="normal" in="SourceGraphic" in2="effect2_dropShadow_122_67" result="shape"/>
<feColorMatrix in="SourceAlpha" type="matrix" values="0 0 0 0 0 0 0 0 0 0 0 0 0 0 0 0 0 0 127 0" result="hardAlpha"/>
<feOffset dy="-3"/>
<feGaussianBlur stdDeviation="1.5"/>
<feComposite in2="hardAlpha" operator="arithmetic" k2="-1" k3="1"/>
<feColorMatrix type="matrix" values="0 0 0 0 0.894118 0 0 0 0 0.898039 0 0 0 0 0.905882 0 0 0 0.48 0"/>
<feBlend mode="normal" in2="shape" result="effect3_innerShadow_122_67"/>
</filter>
<filter id="filter2_d_122_67" x="10" y="6" width="12" height="12" filterUnits="userSpaceOnUse" color-interpolation-filters="sRGB">
<feFlood flood-opacity="0" result="BackgroundImageFix"/>
<feColorMatrix in="SourceAlpha" type="matrix" values="0 0 0 0 0 0 0 0 0 0 0 0 0 0 0 0 0 0 127 0" result="hardAlpha"/>
<feOffset dy="2"/>
<feGaussianBlur stdDeviation="2"/>
<feColorMatrix type="matrix" values="0 0 0 0 0.105882 0 0 0 0 0.109804 0 0 0 0 0.113725 0 0 0 0.04 0"/>
<feBlend mode="normal" in2="BackgroundImageFix" result="effect1_dropShadow_122_67"/>
<feBlend mode="normal" in="SourceGraphic" in2="effect1_dropShadow_122_67" result="shape"/>
</filter>
</defs>
</svg>
